<svg viewBox="0 0 1024 1024" fill="#1296db" xmlns="http://www.w3.org/2000/svg">
<path d="M512 0C228.693333 0 0 228.693333 0 512s228.693333 512 512 512 512-228.693333 512-512S795.306667 0 512 0z m204.8 423.253333v218.453334c0 34.133333-17.066667 51.2-47.786667 51.2h-47.786666l-10.24-40.96h47.786666c13.653333 0 20.48-6.826667 20.48-20.48v-174.08h-139.946666v300.373333h-40.96v-300.373333h-139.946667v232.106666H320.853333v-273.066666h177.493334V337.92c-64.853333 3.413333-133.12 6.826667-204.8 6.826667L279.893333 307.2c177.493333 0 327.68-17.066667 443.733334-44.373333l20.48 34.133333c-58.026667 17.066667-126.293333 27.306667-204.8 37.546667v88.746666H716.8z" />
</svg>