<svg viewBox="0 0 1064 1024" fill="#FE8932" xmlns="http://www.w3.org/2000/svg">
  <path d="M744.257079 255.247571a8.432825 8.432825 0 0 0 5.421102 3.955397l227.605974 50.697343a109.606652 109.606652 0 0 1 58.387277 179.438478l-154.6018 175.402769a8.432825 8.432825 0 0 0-2.06805 6.364776l22.286753 232.826294a109.606652 109.606652 0 0 1-152.895156 110.911733l-213.812281-93.142565a7.669856 7.669856 0 0 0-6.103759 0l-213.83236 93.162643a109.606652 109.606652 0 0 1-152.855-110.931811l22.286753-232.826294a8.432825 8.432825 0 0 0-2.088128-6.364776l-154.6018-175.402769a109.606652 109.606652 0 0 1 58.387278-179.438478l227.585895-50.697343a8.432825 8.432825 0 0 0 5.441181-3.955397l118.260337-201.163043a109.606652 109.606652 0 0 1 188.935446 0l118.260338 201.163043z" />
</svg>