<svg viewBox="0 0 1024 1024" fill="#1296db" xmlns="http://www.w3.org/2000/svg">
<path d="M939.358266 410.159945H666.684894C772.374573 19.898057 593.892003 0 593.892003 0c-75.592618 0-59.994141 59.794161-65.693585 69.793184 0 190.781369-202.680207 340.366761-202.680207 340.366761v541.147154c0 53.394786 72.792891 72.692901 101.390099 72.692901h409.659994c38.596231 0 69.993165-101.090128 69.993165-101.090128C1007.951567 578.243531 1007.951567 475.75354 1007.951567 475.75354c-0.09999-71.293038-68.593301-65.593594-68.593301-65.593595zM213.629138 410.259936H50.345083c-33.696709 0-34.19666 33.096768-34.19666 33.096767l33.696709 545.746705c0 34.696612 34.796602 34.696612 34.796602 34.696612h141.286203c29.397129 0 29.197149-22.997754 29.197148-22.997755V451.655893c0-41.895909-41.495948-41.395957-41.495947-41.395957z" />
</svg>
